<svg xmlns="http://www.w3.org/2000/svg" viewBox="0 0 436.5 93.96"><title>Flickr logo</title><path d="M366.83,533.92A20.88,20.88,0,1,0,346,513a20.88,20.88,0,0,0,20.88,20.88" transform="translate(-293.75 -465.02)" style="fill:#ff0084"/><path d="M314.63,533.92A20.88,20.88,0,1,0,293.75,513a20.88,20.88,0,0,0,20.88,20.88" transform="translate(-293.75 -465.02)" style="fill:#0063dc"/><path d="M432.43,509.57H420v-15.3h12.78v-3.88c0-18.82,8.56-25.37,25.43-25.37A55.86,55.86,0,0,1,469,466.23l-1.29,15.05a18.67,18.67,0,0,0-6.68-1c-5.39,0-7.5,3.88-7.5,10.08v3.88h15v15.3h-15v48h-21.1Z" transform="translate(-293.75 -465.02)" style="fill:#0063db"/><rect x="185.79" y="1.46" width="21.1" height="91.05" style="fill:#0063db"/><rect x="224.94" y="2.91" width="21.1" height="16.02" style="fill:#0063db"/><rect x="224.94" y="29.26" width="21.1" height="63.25" style="fill:#0063db"/><path d="M603.2,512.36a22.57,22.57,0,0,0-12.78-3.52c-9.14,0-16.17,6.56-16.17,17.48,0,10.08,8.2,16.63,17.35,16.63a28.06,28.06,0,0,0,13.13-3l.47,16.27A55.09,55.09,0,0,1,588,559c-20.16,0-35.51-12.14-35.51-33S567.8,492.82,588,492.82a36.8,36.8,0,0,1,16.76,3.52Z" transform="translate(-293.75 -465.02)" style="fill:#0063db"/><polygon points="320.23 1.46 341.32 1.46 341.32 55.84 341.56 55.84 359.14 29.26 382.23 29.26 361.02 58.27 383.99 92.5 358.44 92.5 341.56 61.18 341.32 61.18 341.32 92.5 320.23 92.5 320.23 1.46" style="fill:#0063db"/><path d="M729.19,511.76A23.55,23.55,0,0,0,722,511c-9.85,0-15.35,7.4-15.35,19.79v26.71h-21.1V494.28h19.22v11.65H705c3.63-8,8.91-13.11,18.05-13.11a43.38,43.38,0,0,1,7.15.73Z" transform="translate(-293.75 -465.02)" style="fill:#ff0084"/></svg>