<?xml version="1.0" standalone="no"?>
<!DOCTYPE svg PUBLIC "-//W3C//DTD SVG 20010904//EN"
 "http://www.w3.org/TR/2001/REC-SVG-20010904/DTD/svg10.dtd">
<svg version="1.0" xmlns="http://www.w3.org/2000/svg"
 width="804.000000pt" height="804.000000pt" viewBox="0 0 804.000000 804.000000"
 preserveAspectRatio="xMidYMid meet">
<metadata>
Created by potrace 1.14, written by Peter Selinger 2001-2017
</metadata>
<g transform="translate(0.000000,804.000000) scale(0.100000,-0.100000)"
fill="#000000" stroke="none">
<path d="M3849 7616 c-2 -2 -33 -6 -69 -9 -340 -29 -723 -195 -993 -432 -200
-175 -336 -351 -447 -580 -71 -147 -111 -267 -147 -439 -23 -112 -27 -157 -27
-311 -1 -158 7 -296 18 -314 2 -3 7 -27 10 -53 4 -26 18 -87 32 -135 124 -438
402 -805 792 -1049 57 -35 105 -64 107 -64 2 0 41 -18 87 -39 117 -55 274
-108 371 -127 12 -2 33 -6 47 -9 110 -24 182 -30 355 -30 145 0 235 6 305 20
485 93 868 324 1155 695 154 200 275 465 326 714 28 141 34 201 34 371 0 184
-11 276 -51 433 -144 570 -565 1036 -1124 1245 -213 80 -404 114 -641 115 -75
0 -138 -1 -140 -2z"/>
<path d="M1735 4010 c-163 -23 -149 -21 -240 -44 -101 -25 -136 -36 -229 -72
-88 -35 -246 -111 -256 -123 -3 -4 -16 -11 -30 -18 -85 -37 -305 -220 -415
-344 -132 -149 -273 -378 -333 -539 -21 -56 -72 -221 -77 -249 -2 -14 -7 -37
-10 -51 -27 -139 -37 -267 -32 -422 3 -82 8 -151 10 -155 3 -5 8 -30 11 -58
14 -125 83 -344 158 -497 169 -347 456 -637 807 -817 151 -77 369 -152 486
-167 22 -3 46 -7 53 -10 35 -11 161 -19 302 -19 187 0 277 10 425 46 212 52
407 136 580 251 227 149 431 360 559 578 41 68 136 267 136 282 0 8 4 18 9 24
10 9 67 207 75 259 3 17 8 48 12 70 3 22 8 44 12 49 9 15 11 366 2 426 -4 30
-11 73 -14 95 -64 418 -301 829 -631 1094 -38 31 -76 61 -83 68 -7 7 -52 37
-101 67 -311 192 -629 284 -986 283 -82 0 -172 -4 -200 -7z"/>
<path d="M5948 4015 c-1 -1 -28 -5 -58 -9 -30 -3 -66 -8 -80 -10 -14 -3 -41
-7 -60 -10 -19 -3 -69 -15 -110 -26 -41 -12 -82 -22 -90 -24 -9 -2 -58 -20
-110 -41 -334 -128 -626 -356 -835 -650 -149 -209 -266 -496 -300 -730 -3 -22
-9 -65 -14 -95 -14 -87 -6 -392 13 -495 25 -130 65 -275 96 -350 132 -312 316
-562 550 -748 94 -74 122 -93 208 -144 124 -73 237 -125 363 -167 128 -43 213
-62 379 -85 67 -9 377 -7 440 3 19 3 53 8 75 12 22 3 84 17 137 30 569 142
1038 550 1253 1089 32 81 80 244 89 301 6 41 12 71 22 119 10 50 13 376 3 435
-5 30 -11 73 -15 95 -3 22 -10 60 -16 85 -5 25 -11 54 -14 64 -6 30 -24 85
-57 176 -179 487 -572 878 -1067 1063 -93 35 -256 79 -335 91 -22 4 -56 9 -75
12 -39 6 -386 14 -392 9z"/>
</g>
</svg>
